HIERARCHY
ROOT Hips
{
	OFFSET -285.066589 92.472481 297.089996
	CHANNELS 6 Xposition Yposition Zposition Zrotation Yrotation Xrotation 
	JOINT LeftUpLeg
	{
		OFFSET 0.103457 1.857824 10.548504
		CHANNELS 3 Zrotation Yrotation Xrotation
		JOINT LeftLeg
		{
			OFFSET 43.500000 -0.000038 -0.000017
			CHANNELS 3 Zrotation Yrotation Xrotation
			JOINT LeftFoot
			{
				OFFSET 42.372200 0.000011 0.000019
				CHANNELS 3 Zrotation Yrotation Xrotation
				JOINT LeftToe
				{
					OFFSET 17.300011 0.000002 -0.000008
					CHANNELS 3 Zrotation Yrotation Xrotation
					End Site
					{
						OFFSET 0.000000 0.000000 0.000000
					}
				}
			}
		}
	}
	JOINT RightUpLeg
	{
		OFFSET 0.103457 1.857822 -10.548492
		CHANNELS 3 Zrotation Yrotation Xrotation
		JOINT RightLeg
		{
			OFFSET 43.500038 -0.000027 0.000036
			CHANNELS 3 Zrotation Yrotation Xrotation
			JOINT RightFoot
			{
				OFFSET 42.372261 0.000015 0.000010
				CHANNELS 3 Zrotation Yrotation Xrotation
				JOINT RightToe
				{
					OFFSET 17.299988 -0.000006 0.000008
					CHANNELS 3 Zrotation Yrotation Xrotation
					End Site
					{
						OFFSET 0.000000 0.000000 0.000000
					}
				}
			}
		}
	}
	JOINT Spine
	{
		OFFSET 6.901965 -2.603737 0.000006
		CHANNELS 3 Zrotation Yrotation Xrotation
		JOINT Spine1
		{
			OFFSET 12.588104 -0.000005 0.000007
			CHANNELS 3 Zrotation Yrotation Xrotation
			JOINT Spine2
			{
				OFFSET 12.343202 0.000026 -0.000008
				CHANNELS 3 Zrotation Yrotation Xrotation
				JOINT Neck
				{
					OFFSET 25.832890 -0.000029 -0.000007
					CHANNELS 3 Zrotation Yrotation Xrotation
					JOINT Head
					{
						OFFSET 11.766619 0.000021 0.000012
						CHANNELS 3 Zrotation Yrotation Xrotation
						End Site
						{
							OFFSET 0.000000 0.000000 0.000000
						}
					}
				}
				JOINT LeftShoulder
				{
					OFFSET 19.745909 -1.480377 6.000106
					CHANNELS 3 Zrotation Yrotation Xrotation
					JOINT LeftArm
					{
						OFFSET 11.284110 -0.000009 -0.000020
						CHANNELS 3 Zrotation Yrotation Xrotation
						JOINT LeftForeArm
						{
							OFFSET 33.000053 0.000014 0.000021
							CHANNELS 3 Zrotation Yrotation Xrotation
							JOINT LeftHand
							{
								OFFSET 25.200008 0.000006 -0.000004
								CHANNELS 3 Zrotation Yrotation Xrotation
								End Site
								{
									OFFSET 0.000000 0.000000 0.000000
								}
							}
						}
					}
				}
				JOINT RightShoulder
				{
					OFFSET 19.746101 -1.480381 -6.000081
					CHANNELS 3 Zrotation Yrotation Xrotation
					JOINT RightArm
					{
						OFFSET 11.284131 -0.000022 0.000003
						CHANNELS 3 Zrotation Yrotation Xrotation
						JOINT RightForeArm
						{
							OFFSET 33.000095 0.000014 0.000005
							CHANNELS 3 Zrotation Yrotation Xrotation
							JOINT RightHand
							{
								OFFSET 25.199774 0.000153 0.000423
								CHANNELS 3 Zrotation Yrotation Xrotation
								End Site
								{
									OFFSET 0.000000 0.000000 0.000000
								}
							}
						}
					}
				}
			}
		}
	}
}
MOTION
Frames: 5
Frame Time: 0.033333
-301.078491 83.842293 -171.121597 89.400524 6.298381 107.484010 -178.505054 -2.792688 162.823650 -51.142797 -3.518112 -2.601472 98.808078 1.946887 1.972763 21.454558 0.003095 0.000003 163.809246 20.266295 -160.728039 -42.131984 -4.848740 15.531136 87.027798 -8.930027 9.423464 21.454557 -0.003108 -0.000018 9.983867 1.050603 1.281469 9.979414 1.986677 2.649149 9.661485 2.002765 2.637118 17.158928 5.735122 21.079487 -25.814949 -25.372117 33.886348 -133.160904 -72.419485 -49.499037 12.167349 54.682317 40.191664 -58.716800 -19.431615 2.353484 -5.879440 -10.664851 7.975941 169.270994 75.641353 -9.538099 12.614646 -46.590103 -42.232033 -51.243586 23.029086 -2.361324 6.384261 20.300651 -5.920214 
-299.161896 82.991852 -171.236893 90.602234 6.455222 112.865003 -178.281406 -1.400296 164.740898 -52.048791 -3.083678 -1.553349 100.464610 1.332898 3.932989 21.454543 0.003085 -0.000002 161.936695 19.372109 -166.727213 -48.711089 -5.966227 12.006253 89.357692 -7.085945 6.233007 21.454558 -0.003111 -0.000015 10.353552 0.736402 1.103406 10.708583 1.367408 2.270383 10.390658 1.381230 2.262092 15.986956 7.028003 19.691599 -26.846999 -24.717620 32.492470 -141.143059 -72.407628 -41.323966 5.491057 56.677746 34.970562 -58.104310 -20.086960 2.375682 -5.652198 -14.208729 6.055758 170.670923 75.395603 -8.114969 11.697743 -45.675640 -41.806297 -51.032551 22.585267 -2.323774 6.834836 18.792982 -4.680636 
-297.191406 82.343529 -171.069305 91.498840 6.596171 118.515994 -177.833209 -0.267394 167.399440 -52.770885 -2.445896 -0.598535 101.413201 0.747669 5.512854 21.454550 0.003090 0.000001 160.111164 17.637802 -170.138482 -55.937733 -4.722119 9.852113 90.030984 -5.545414 7.110617 21.454553 -0.003119 -0.000020 10.743960 0.488172 0.784456 11.481772 0.895953 1.613529 11.163757 0.905822 1.608102 14.651669 8.479945 18.488723 -27.808733 -23.813369 31.182955 -148.002946 -72.615238 -34.279073 -1.312468 57.717175 29.955799 -58.712047 -20.736092 2.443303 -5.749281 -17.994028 5.447091 172.946059 75.183621 -5.797115 11.065053 -45.956204 -42.560644 -49.435055 22.458000 -2.260923 7.715474 17.758398 -2.561985 
-294.959595 81.798401 -170.446701 92.484327 6.354563 122.913940 -176.378734 0.703798 168.811363 -52.417037 -2.386163 0.572143 101.860387 0.061844 7.331018 21.454555 0.003093 -0.000001 157.487005 15.504504 -170.781162 -62.189603 -2.737136 9.774757 90.689585 -5.563404 7.169409 21.454560 -0.003107 -0.000017 11.081801 0.094538 0.539689 12.151406 0.131753 1.086307 11.833370 0.138455 1.085502 13.174233 10.194486 17.549211 -28.365091 -23.122960 30.183006 -152.248045 -72.599884 -29.920887 -7.581755 57.571671 24.648580 -60.881991 -21.075700 2.549983 -7.568744 -21.440831 5.985350 175.060071 74.597919 -3.649890 11.131330 -46.373662 -44.405324 -47.432156 21.884713 -2.156594 7.482901 17.793029 -2.557814 
-292.449799 81.615227 -169.685394 92.854270 5.382154 126.968996 -175.052271 1.469106 170.231646 -50.934664 -2.597278 1.849726 101.389001 -0.619296 9.262485 21.454551 0.003087 -0.000001 154.007652 12.819905 -169.203088 -65.657905 -1.121301 9.556207 91.395383 -5.498558 7.259518 21.454558 -0.003105 -0.000017 11.209183 -0.265635 0.121570 12.405140 -0.542819 0.213929 12.087010 -0.541369 0.217219 12.254243 11.764571 17.153924 -29.240330 -22.804243 30.005619 -154.683130 -73.080306 -27.408924 -11.100769 57.616307 18.988370 -65.660740 -20.277271 2.683879 -11.137021 -23.558965 10.654461 175.538088 74.149982 -3.172112 12.004347 -46.685344 -47.648663 -45.911944 21.244672 -2.065747 6.767557 17.409599 -2.239735 
